<?xml version="1.0" encoding="UTF-8"?>
<svg width="973px" height="206px" viewBox="0 0 973 206" version="1.1" xmlns="http://www.w3.org/2000/svg" xmlns:xlink="http://www.w3.org/1999/xlink">
    <!-- Generator: Sketch 52.5 (67469) - http://www.bohemiancoding.com/sketch -->
    <title>512x96 copy 10</title>
    <desc>Created with Sketch.</desc>
    <g id="512x96-copy-10" stroke="none" stroke-width="1" fill="none" fill-rule="evenodd">
        <g id="Group" transform="translate(509.559433, 111.623403) rotate(-3.000000) translate(-509.559433, -111.623403) translate(128.559433, 50.123403)">
            <rect id="Rectangle" fill="#FFC53F" x="3.12638804e-13" y="7.38964445e-13" width="761.376089" height="122.302083"></rect>
            <path d="M121.461023,61.9890363 C121.461023,67.0446171 120.572143,71.7251259 118.794357,76.0307029 C117.01657,80.33628 114.433263,83.8779113 111.044357,86.6557029 C107.655451,89.4334946 103.599936,91.1001446 98.87769,91.6557029 C96.9332358,91.8779263 94.5443708,91.9890363 91.7110233,91.9890363 L72.2943567,91.9890363 L72.2943567,31.9890363 L91.7110233,31.9890363 C94.5443708,31.9890363 96.9332358,32.1001463 98.87769,32.3223696 C103.599936,32.8779279 107.655451,34.5445779 111.044357,37.3223696 C114.433263,40.1001613 117.01657,43.6417925 118.794357,47.9473696 C120.572143,52.2529467 121.461023,56.9334554 121.461023,61.9890363 Z M109.461023,61.9890363 C109.461023,57.2112346 108.516588,53.0862759 106.62769,49.6140363 C104.738792,46.1417967 101.933264,43.9612629 98.2110233,43.0723696 C96.9332392,42.7945904 94.7665942,42.6557029 91.7110233,42.6557029 L83.7943567,42.6557029 L83.7943567,81.3223696 L91.7110233,81.3223696 C94.82215,81.3223696 96.988795,81.1834821 98.2110233,80.9057029 C101.933264,80.0168096 104.738792,77.8362759 106.62769,74.3640363 C108.516588,70.8917967 109.461023,66.7668379 109.461023,61.9890363 Z M158.774357,91.9890363 L158.774357,86.4890363 C156.718791,88.8779371 154.538257,90.6001421 152.23269,91.6557029 C149.927123,92.7112638 146.941042,93.2390363 143.274357,93.2390363 C138.774334,93.2390363 135.177148,91.9473825 132.48269,89.3640363 C129.788232,86.78069 128.441023,83.3779463 128.441023,79.1557029 C128.441023,73.2667846 131.135441,69.1279371 136.524357,66.7390363 C138.802146,65.7390313 141.288232,64.9612613 143.98269,64.4057029 C146.677148,63.8501446 150.191002,63.2668171 154.524357,62.6557029 L157.441023,62.2390363 C157.163244,60.0723588 156.274364,58.50293 154.774357,57.5307029 C153.274349,56.5584759 151.441034,56.0723696 149.274357,56.0723696 C147.218791,56.0723696 145.385476,56.5306984 143.774357,57.4473696 C142.163238,58.3640409 140.968805,59.7390271 140.191023,61.5723696 L130.024357,58.4890363 C131.635476,54.7667954 134.121562,51.7112704 137.48269,49.3223696 C140.843818,46.9334688 144.885444,45.7390363 149.60769,45.7390363 C154.329936,45.7390363 158.218786,46.6834713 161.274357,48.5723696 C164.329928,50.4612679 166.468795,53.2667954 167.691023,56.9890363 C168.357693,59.0446021 168.691023,61.7667971 168.691023,65.1557029 L168.691023,91.9890363 L158.774357,91.9890363 Z M155.941023,78.9890363 C156.941028,77.3223613 157.441023,74.7946088 157.441023,71.4057029 C154.829899,71.8501496 152.566033,72.2529234 150.649357,72.6140363 C148.73268,72.9751492 146.941032,73.4057004 145.274357,73.9057029 C141.441004,74.9612638 139.524357,76.7945788 139.524357,79.4057029 C139.524357,80.7390429 140.079907,81.9056979 141.191023,82.9057029 C142.30214,83.9057079 143.885458,84.4057029 145.941023,84.4057029 C147.996589,84.4057029 149.941014,83.8918192 151.774357,82.8640363 C153.607699,81.8362534 154.996574,80.5445996 155.941023,78.9890363 Z M193.83769,49.1557029 C196.393258,47.6001396 199.393228,46.8223696 202.83769,46.8223696 C203.448804,46.8223696 204.309907,46.8779246 205.421023,46.9890363 L205.421023,57.5723696 C204.421018,57.2945904 203.365473,57.1557029 202.254357,57.1557029 C200.198791,57.1557029 198.309921,57.5445879 196.58769,58.3223696 C192.476558,60.2668238 190.421023,63.8223438 190.421023,68.9890363 L190.421023,91.9890363 L179.004357,91.9890363 L179.004357,46.9890363 L189.004357,46.9890363 L189.004357,54.2390363 C190.171029,52.1834704 191.782124,50.4890429 193.83769,49.1557029 Z M240.06769,63.7390363 C239.40102,61.4056913 238.248254,59.586265 236.609357,58.2807029 C234.97046,56.9751409 233.095478,56.3223696 230.984357,56.3223696 C227.539895,56.3223696 224.956588,57.5306909 223.234357,59.9473696 C221.512126,62.3640484 220.651023,65.5445721 220.651023,69.4890363 C220.651023,73.4890563 221.539903,76.6834688 223.31769,79.0723696 C225.095477,81.4612704 227.651007,82.6557029 230.984357,82.6557029 C233.428813,82.6557029 235.331572,82.1001529 236.69269,80.9890363 C238.053808,79.8779196 239.095464,78.1834921 239.81769,75.9057029 L251.401023,78.3223696 C250.123239,83.1001713 247.706597,86.78069 244.151023,89.3640363 C240.59545,91.9473825 236.206605,93.2390363 230.984357,93.2390363 C226.428778,93.2390363 222.470485,92.2112688 219.109357,90.1557029 C215.748229,88.1001371 213.164921,85.2668321 211.359357,81.6557029 C209.553792,78.0445738 208.651023,73.9890588 208.651023,69.4890363 C208.651023,64.9334579 209.58157,60.8640542 211.44269,57.2807029 C213.30381,53.6973517 215.928784,50.8779354 219.31769,48.8223696 C222.706596,46.7668038 226.651001,45.7390363 231.151023,45.7390363 C236.428828,45.7390363 240.873228,47.086245 244.484357,49.7807029 C248.095486,52.4751609 250.401018,56.1279021 251.401023,60.7390363 L240.06769,63.7390363 Z M299.214357,46.9890363 L273.79769,111.989036 L263.29769,111.905703 L270.631023,91.9890363 L270.714357,91.6557029 L252.54769,46.9890363 L264.29769,46.9890363 L276.131023,77.5723696 L287.881023,46.9890363 L299.214357,46.9890363 Z M321.50769,31.9890363 L332.841023,31.9890363 L332.841023,81.4057029 L358.674357,81.4057029 L358.674357,91.9890363 L321.50769,91.9890363 L321.50769,31.9890363 Z M406.571023,46.9890363 L406.571023,91.9890363 L396.571023,91.9890363 L396.571023,87.3223696 L395.98769,87.9890363 C394.432127,89.8779346 392.432147,91.2390321 389.98769,92.0723696 C387.543233,92.9057071 385.043258,93.3223696 382.48769,93.3223696 C377.043218,93.3223696 372.654373,91.6834971 369.321023,88.4057029 C367.821016,86.9056954 366.709916,85.1140467 365.98769,83.0307029 C365.265464,80.9473592 364.821024,78.8362692 364.654357,76.6973696 C364.487689,74.55847 364.404357,71.9057188 364.404357,68.7390363 L364.404357,46.9890363 L375.904357,46.9890363 L375.904357,68.2390363 C375.904357,73.9612871 376.904347,77.9056921 378.904357,80.0723696 C380.45992,81.7946004 382.68212,82.6557029 385.571023,82.6557029 C387.848813,82.6557029 389.76546,82.0723754 391.321023,80.9057029 C393.043254,79.6279188 394.154354,77.7112713 394.654357,75.1557029 C394.987692,73.5445838 395.154357,70.6835013 395.154357,66.5723696 L395.154357,46.9890363 L406.571023,46.9890363 Z M458.051024,46.9890363 L458.051024,95.0723696 C458.051024,97.4057146 457.828804,99.4334721 457.384357,101.155703 C456.328796,105.100167 453.967709,108.086248 450.301024,110.114036 C446.634339,112.141824 442.189939,113.155703 436.96769,113.155703 C433.189894,113.155703 429.689929,112.280712 426.46769,110.530703 C423.245452,108.780694 420.773254,106.433495 419.051024,103.489036 L429.551024,98.4057029 C430.217694,99.6834871 431.231572,100.683477 432.59269,101.405703 C433.953808,102.127929 435.439904,102.489036 437.051024,102.489036 C439.773259,102.489036 442.078792,101.822376 443.96769,100.489036 C445.856589,99.1556963 446.773246,97.2946038 446.71769,94.9057029 L446.71769,90.4057029 C443.717675,92.2946013 440.134378,93.2390363 435.96769,93.2390363 C431.912114,93.2390363 428.314928,92.2112688 425.176024,90.1557029 C422.037119,88.1001371 419.592699,85.2668321 417.84269,81.6557029 C416.092681,78.0445738 415.21769,73.9890588 415.21769,69.4890363 C415.21769,64.9334579 416.10657,60.8501654 417.884357,57.2390363 C419.662144,53.6279071 422.162119,50.8084909 425.384357,48.7807029 C428.606595,46.752915 432.32878,45.7390363 436.551024,45.7390363 C441.162158,45.7390363 445.02323,46.9890238 448.134357,49.4890363 L448.134357,46.9890363 L458.051024,46.9890363 Z M437.801024,83.1557029 C444.689947,83.1557029 448.134357,78.6001929 448.134357,69.4890363 C448.134357,65.2112371 447.328809,61.8640484 445.71769,59.4473696 C444.106571,57.0306909 441.606596,55.8223696 438.21769,55.8223696 C434.606561,55.8223696 431.870477,57.1001346 430.009357,59.6557029 C428.148236,62.2112713 427.21769,65.4890163 427.21769,69.4890363 C427.21769,73.5446121 428.10657,76.8362459 429.884357,79.3640363 C431.662144,81.8918267 434.301006,83.1557029 437.801024,83.1557029 Z M483.19769,55.7390363 L483.19769,74.9057029 C483.19769,76.2390429 483.267134,77.3501429 483.406024,78.2390363 C483.544913,79.1279296 483.781022,79.8223671 484.114357,80.3223696 C485.058806,81.8223771 486.642124,82.6834796 488.864357,82.9057029 C489.253248,82.9612588 489.864353,82.9890363 490.69769,82.9890363 C492.419921,82.9890363 494.253236,82.8501488 496.19769,82.5723696 L496.19769,91.9890363 C494.308792,92.4890388 491.892149,92.7390363 488.94769,92.7390363 C486.669901,92.7390363 484.697699,92.6001488 483.031024,92.3223696 C480.864346,91.9334788 479.086586,91.3223738 477.69769,90.4890363 C476.308794,89.6556988 475.031029,88.3779338 473.864357,86.6557029 C473.086575,85.4890304 472.558803,84.1695992 472.281024,82.6973696 C472.003244,81.22514 471.864357,79.4334913 471.864357,77.3223696 L471.864357,55.7390363 L464.19769,55.7390363 L464.19769,46.9890363 L471.864357,46.9890363 L471.864357,34.4890363 L483.19769,34.4890363 L483.19769,46.9890363 L496.19769,46.9890363 L496.19769,55.7390363 L483.19769,55.7390363 Z M529.844357,61.3223696 L529.844357,70.0723696 L504.844357,70.0723696 L504.844357,61.3223696 L529.844357,61.3223696 Z M551.491024,43.3223696 L551.491024,56.3223696 L571.824357,56.3223696 L571.824357,67.6557029 L551.491024,67.6557029 L551.491024,91.9890363 L540.15769,91.9890363 L540.15769,31.9890363 L576.824357,31.9890363 L576.824357,43.3223696 L551.491024,43.3223696 Z M609.971024,91.9890363 L609.971024,86.4890363 C607.915458,88.8779371 605.734924,90.6001421 603.429357,91.6557029 C601.12379,92.7112638 598.137709,93.2390363 594.471024,93.2390363 C589.971001,93.2390363 586.373815,91.9473825 583.679357,89.3640363 C580.984899,86.78069 579.63769,83.3779463 579.63769,79.1557029 C579.63769,73.2667846 582.332108,69.1279371 587.721024,66.7390363 C589.998813,65.7390313 592.484899,64.9612613 595.179357,64.4057029 C597.873815,63.8501446 601.387669,63.2668171 605.721024,62.6557029 L608.63769,62.2390363 C608.359911,60.0723588 607.471031,58.50293 605.971024,57.5307029 C604.471016,56.5584759 602.637701,56.0723696 600.471024,56.0723696 C598.415458,56.0723696 596.582143,56.5306984 594.971024,57.4473696 C593.359904,58.3640409 592.165472,59.7390271 591.38769,61.5723696 L581.221024,58.4890363 C582.832143,54.7667954 585.318229,51.7112704 588.679357,49.3223696 C592.040485,46.9334688 596.082111,45.7390363 600.804357,45.7390363 C605.526603,45.7390363 609.415453,46.6834713 612.471024,48.5723696 C615.526594,50.4612679 617.665462,53.2667954 618.88769,56.9890363 C619.55436,59.0446021 619.88769,61.7667971 619.88769,65.1557029 L619.88769,91.9890363 L609.971024,91.9890363 Z M607.13769,78.9890363 C608.137695,77.3223613 608.63769,74.7946088 608.63769,71.4057029 C606.026566,71.8501496 603.7627,72.2529234 601.846024,72.6140363 C599.929347,72.9751492 598.137699,73.4057004 596.471024,73.9057029 C592.637671,74.9612638 590.721024,76.7945788 590.721024,79.4057029 C590.721024,80.7390429 591.276574,81.9056979 592.38769,82.9057029 C593.498807,83.9057079 595.082124,84.4057029 597.13769,84.4057029 C599.193256,84.4057029 601.137681,83.8918192 602.971024,82.8640363 C604.804366,81.8362534 606.193241,80.5445996 607.13769,78.9890363 Z M642.36769,91.9890363 L631.034357,91.9890363 L631.034357,30.7390363 L642.36769,30.7390363 L642.36769,91.9890363 Z M654.431024,31.9890363 L665.931024,31.9890363 L665.931024,68.6557029 L681.181024,46.9890363 L695.181024,46.9890363 L678.931024,69.4890363 L696.264357,91.9890363 L681.514357,91.9890363 L665.931024,70.3223696 L665.931024,91.9890363 L654.34769,91.9890363 L654.431024,31.9890363 Z" id="Darcy-Lugt-Falk" fill="#000000"></path>
        </g>
        <path d="M99.5257517,62.64128 L92.2497101,62.64128 L92.2497101,38.0058633 L80.2757517,62.64128 L77.5257517,62.64128 L65.5517934,38.063155 L65.5517934,62.64128 L58.2757517,62.64128 L58.2757517,21.39128 L65.2653351,21.39128 L78.9007517,48.7766967 L92.5361684,21.39128 L99.5257517,21.39128 L99.5257517,62.64128 Z M125.967001,62.64128 L125.967001,58.86003 C124.5538,60.5023993 123.054683,61.6864153 121.469606,62.4121133 C119.884528,63.1378114 117.831597,63.500655 115.310751,63.500655 C112.216986,63.500655 109.74392,62.6126431 107.891481,60.8365925 C106.039041,59.060542 105.112835,56.7211556 105.112835,53.8183633 C105.112835,49.769732 106.965247,46.9242743 110.670126,45.281905 C112.236106,44.5944016 113.945291,44.0596847 115.797731,43.6777383 C117.65017,43.295792 120.065945,42.8947543 123.045126,42.4746133 L125.050335,42.188155 C124.859361,40.6985642 124.248256,39.619582 123.217001,38.9511758 C122.185746,38.2827697 120.925342,37.9485717 119.435751,37.9485717 C118.02255,37.9485717 116.762146,38.2636727 115.654501,38.8938842 C114.546857,39.5240957 113.725685,40.4693987 113.19096,41.7298217 L106.201376,39.61003 C107.309021,37.0509894 109.018205,34.950316 111.328981,33.3079467 C113.639756,31.6655774 116.418374,30.844405 119.664918,30.844405 C122.911462,30.844405 125.585046,31.4937041 127.685751,32.7923217 C129.786456,34.0909393 131.256928,36.0197394 132.09721,38.57878 C132.555545,39.9919815 132.78471,41.8634906 132.78471,44.1933633 L132.78471,62.64128 L125.967001,62.64128 Z M124.019085,53.70378 C124.706588,52.5579409 125.050335,50.8201111 125.050335,48.4902383 C123.255187,48.7957954 121.698779,49.0727024 120.381064,49.3209675 C119.063349,49.5692326 117.83159,49.8652366 116.685751,50.2089883 C114.050321,50.9346864 112.732626,52.1950905 112.732626,53.9902383 C112.732626,54.9069096 113.114567,55.7089849 113.87846,56.3964883 C114.642352,57.0839918 115.730883,57.4277383 117.144085,57.4277383 C118.557286,57.4277383 119.894078,57.0744433 121.154501,56.3678425 C122.414924,55.6612418 123.369776,54.7732298 124.019085,53.70378 Z M167.304084,21.39128 L167.304084,62.64128 L160.429084,62.64128 L160.429084,60.8652383 C158.137406,62.6221916 155.34924,63.500655 152.064501,63.500655 C149.276293,63.500655 146.803227,62.7940649 144.64523,61.3808633 C142.487233,59.9676618 140.806694,58.0197646 139.603563,55.5371133 C138.400432,53.054462 137.798876,50.2662955 137.798876,47.17253 C137.798876,44.0405699 138.409981,41.2333063 139.632209,38.750655 C140.854438,36.2680037 142.57317,34.329655 144.788459,32.9355508 C147.003748,31.5414467 149.56275,30.844405 152.465543,30.844405 C155.100972,30.844405 157.43081,31.474607 159.455126,32.73503 L159.455126,21.39128 L167.304084,21.39128 Z M153.324918,56.5683633 C158.061052,56.5683633 160.429084,53.4364502 160.429084,47.17253 C160.429084,44.2315431 159.87527,41.9303508 158.767626,40.2688842 C157.659982,38.6074175 155.941249,37.7766967 153.611376,37.7766967 C151.128725,37.7766967 149.247667,38.6551601 147.968147,40.4121133 C146.688626,42.1690666 146.048876,44.4225163 146.048876,47.17253 C146.048876,49.9607384 146.659981,52.2237366 147.882209,53.9615925 C149.104438,55.6994484 150.918656,56.5683633 153.324918,56.5683633 Z M181.313042,49.3496133 C181.618599,51.5267076 182.382481,53.2167948 183.604709,54.4199258 C184.826937,55.6230569 186.469282,56.2246133 188.531792,56.2246133 C189.983188,56.2246133 191.262689,55.8904153 192.370334,55.2220092 C193.477978,54.5536031 194.337345,53.589203 194.948459,52.32878 L202.740126,54.563155 C201.632481,57.3131688 199.808715,59.4902303 197.268771,61.094405 C194.728828,62.6985797 191.969307,63.500655 188.990126,63.500655 C185.819971,63.500655 183.012707,62.8227104 180.568251,61.4668008 C178.123794,60.1108913 176.233188,58.2202852 174.896376,55.7949258 C173.559563,53.3695665 172.891167,50.6291425 172.891167,47.5735717 C172.891167,44.2506384 173.540466,41.3287926 174.839084,38.8079467 C176.137701,36.2871007 177.971016,34.329655 180.339084,32.9355508 C182.707151,31.5414467 185.438027,30.844405 188.531792,30.844405 C191.587363,30.844405 194.213205,31.5223496 196.409396,32.8782592 C198.605588,34.2341687 200.276578,36.1438719 201.422417,38.6074258 C202.568256,41.0709798 203.141167,43.906889 203.141167,47.1152383 C203.141167,47.6117686 203.102973,48.3565528 203.026584,49.3496133 L181.313042,49.3496133 Z M188.531792,37.6048217 C184.712329,37.6048217 182.382491,39.5145248 181.542209,43.3339883 L195.120334,43.3339883 C194.852971,41.4242566 194.213221,39.9919792 193.201063,39.0371133 C192.188905,38.0822475 190.632497,37.6048217 188.531792,37.6048217 Z M73.1142934,80.844405 C76.0170857,80.844405 78.5760879,81.5414467 80.7913767,82.9355508 C83.0066656,84.329655 84.7253984,86.2680037 85.9476267,88.750655 C87.1698551,91.2333063 87.7809601,94.0405699 87.7809601,97.17253 C87.7809601,100.266295 87.1794036,103.054462 85.9762726,105.537113 C84.7731415,108.019765 83.0926028,109.967662 80.9346059,111.380863 C78.776609,112.794065 76.3035434,113.500655 73.5153351,113.500655 C70.2305964,113.500655 67.4424299,112.622192 65.1507517,110.865238 L65.1507517,112.64128 L58.2757517,112.64128 L58.2757517,71.39128 L66.1247101,71.39128 L66.1247101,82.73503 C68.1490257,81.474607 70.4788636,80.844405 73.1142934,80.844405 Z M72.2549184,106.568363 C74.6611804,106.568363 76.4753984,105.699448 77.6976267,103.961593 C78.9198551,102.223737 79.5309601,99.9607384 79.5309601,97.17253 C79.5309601,94.4225163 78.8912095,92.1690666 77.6116892,90.4121133 C76.3321689,88.6551601 74.4511114,87.7766967 71.9684601,87.7766967 C69.6385873,87.7766967 67.9198545,88.6074175 66.8122101,90.2688842 C65.7045656,91.9303508 65.1507517,94.2315431 65.1507517,97.17253 C65.1507517,103.43645 67.5187836,106.568363 72.2549184,106.568363 Z M119.72221,81.70378 L102.248251,126.39128 L95.0295013,126.333988 L100.071168,112.64128 L100.12846,112.412113 L87.6388763,81.70378 L95.7170013,81.70378 L103.852418,102.729822 L111.930543,81.70378 L119.72221,81.70378 Z" id="Made-by" fill="#FFFFFF" transform="translate(130.708459, 73.891280) rotate(-3.000000) translate(-130.708459, -73.891280) "></path>
    </g>
</svg>